<?xml version="1.0" encoding="UTF-8" standalone="no"?>
<!DOCTYPE svg PUBLIC "-//W3C//DTD SVG 1.1//EN" "http://www.w3.org/Graphics/SVG/1.1/DTD/svg11.dtd">
<svg width="100%" height="100%" viewBox="0 0 45 45" version="1.1" xmlns="http://www.w3.org/2000/svg" xmlns:xlink="http://www.w3.org/1999/xlink" xml:space="preserve" xmlns:serif="http://www.serif.com/" style="fill-rule:evenodd;clip-rule:evenodd;stroke-linejoin:round;stroke-miterlimit:2;">
    <g transform="matrix(1,0,0,1,-1143,-1279)">
        <g transform="matrix(1,0,0,1,72,-11)">
            <g transform="matrix(0.762712,0,0,0.762712,261.762712,320.59322)">
                <path d="M1120,1273.36L1120,1327.64C1120,1328.943 1118.943,1330 1117.64,1330L1063.36,1330C1062.057,1330 1061,1328.943 1061,1327.64L1061,1273.36C1061,1272.057 1062.057,1271 1063.36,1271L1117.64,1271C1118.943,1271 1120,1272.057 1120,1273.36Z" style="fill-opacity:0;"/>
            </g>
            <g transform="matrix(1.349127,0,0,1.349127,-400.670022,-449.006855)">
                <g transform="matrix(37.060998,0,0,37.060998,1114.267908,1319.755348)">
                </g>
                <text x="1093.662px" y="1319.755px" style="font-family:'HelveticaNeue-MediumItalic', 'Helvetica Neue', sans-serif;font-weight:500;font-style:italic;font-size:37.061px;">ả</text>
            </g>
            <g transform="matrix(0.557076,0,0,1.349127,493.41978,-449.006855)">
                <g transform="matrix(37.060998,0,0,37.060998,1114.267908,1319.755348)">
                </g>
                <text x="1093.662px" y="1319.755px" style="font-family:'HelveticaNeue-MediumItalic', 'Helvetica Neue', sans-serif;font-weight:500;font-style:italic;font-size:37.061px;">ả</text>
            </g>
        </g>
    </g>
</svg>
